<svg width="16" height="16" viewBox="0 0 16 16" fill="none" xmlns="http://www.w3.org/2000/svg">
<path d="M14.6 8.13998C14.6 11.182 11.466 13.648 7.59998 13.648C3.73398 13.648 0.599976 11.182 0.599976 8.13998C0.599976 6.25398 1.79998 4.58798 3.64398 3.59998C5.48798 2.61198 6.63598 1.59998 7.59998 1.59998C8.56398 1.59998 9.38798 2.42598 11.556 3.59998C13.4 4.58798 14.6 6.25398 14.6 8.13998Z" fill="#CCBEA7"/>
<path d="M7.02395 2.10603C7.02674 2.57828 6.9276 3.04556 6.73327 3.47598C6.53894 3.9064 6.25402 4.28981 5.89795 4.60003C5.84195 4.65003 5.88595 4.74603 5.95795 4.71803C6.63195 4.45603 7.54195 3.67203 7.15795 2.09003C7.14195 2.00003 7.02395 2.02403 7.02395 2.10603ZM7.47795 2.10603C7.72266 2.50532 7.87814 2.9528 7.93372 3.4178C7.9893 3.8828 7.94366 4.35432 7.79995 4.80003C7.77595 4.87003 7.86195 4.93003 7.90995 4.87203C8.34795 4.31203 8.72995 3.20003 7.58595 2.00003C7.52795 1.94803 7.43795 2.02803 7.47795 2.09803V2.10603ZM8.02995 2.07203C8.41317 2.34334 8.73376 2.69368 8.9701 3.09941C9.20643 3.50514 9.35301 3.95684 9.39995 4.42403C9.39792 4.44087 9.40245 4.45784 9.4126 4.47142C9.42275 4.485 9.43774 4.49416 9.45446 4.49699C9.47118 4.49982 9.48835 4.4961 9.5024 4.48662C9.51646 4.47713 9.52632 4.4626 9.52995 4.44603C9.71395 3.74803 9.60995 2.55803 8.09595 1.94003C8.01595 1.90803 7.96395 2.01603 8.02995 2.06403V2.07203ZM4.33795 4.15203C4.7938 4.01585 5.21586 3.78518 5.57665 3.47504C5.93744 3.16491 6.22886 2.78227 6.43195 2.35203C6.46795 2.28003 6.58195 2.30803 6.56395 2.38803C6.21795 3.98803 5.05995 4.32203 4.33995 4.27803C4.26395 4.28003 4.26595 4.17403 4.33795 4.15203Z" fill="#FBF0DF"/>
<path d="M9.00998 9.60005C8.92014 9.96804 8.71562 10.2979 8.42598 10.5421C8.20853 10.7528 7.92703 10.8851 7.62598 10.9181C7.31588 10.8904 7.02451 10.7577 6.79998 10.5421C6.5133 10.2968 6.31166 9.96701 6.22398 9.60005C6.22108 9.57827 6.2232 9.5561 6.23018 9.53526C6.23716 9.51443 6.24882 9.49546 6.26426 9.47982C6.27971 9.46419 6.29853 9.45229 6.31928 9.44505C6.34003 9.43781 6.36216 9.43542 6.38398 9.43805H8.85198C8.87364 9.43575 8.89555 9.43839 8.91604 9.44577C8.93654 9.45316 8.95509 9.4651 8.9703 9.4807C8.98551 9.4963 8.99699 9.51514 9.00386 9.53581C9.01073 9.55649 9.01283 9.57845 9.00998 9.60005Z" fill="#B71422"/>
<path d="M6.79995 10.5581C7.02402 10.7739 7.31435 10.9078 7.62395 10.9381C7.93286 10.9073 8.22241 10.7735 8.44595 10.5581C8.51746 10.4914 8.58429 10.4199 8.64595 10.3441C8.52275 10.2043 8.37225 10.0912 8.20372 10.0118C8.03518 9.93231 7.85218 9.88818 7.66595 9.88208C7.4667 9.8868 7.27157 9.93987 7.09737 10.0367C6.92317 10.1336 6.77512 10.2713 6.66595 10.4381C6.71195 10.4801 6.75195 10.5201 6.79995 10.5581Z" fill="#FF6164"/>
<path d="M6.83201 10.4C6.93116 10.2718 7.05808 10.1678 7.20323 10.0957C7.34838 10.0237 7.50797 9.98548 7.67001 9.98398C7.96952 9.99282 8.25489 10.1134 8.47001 10.322C8.51601 10.272 8.56001 10.22 8.60201 10.168C8.34757 9.92567 8.01132 9.78788 7.66001 9.78198C7.47226 9.7836 7.2872 9.82676 7.11811 9.90837C6.94901 9.98998 6.80008 10.108 6.68201 10.254C6.72929 10.3054 6.77937 10.3541 6.83201 10.4Z" fill="black"/>
<path d="M7.61797 11.0381C7.2847 11.0089 6.97107 10.8679 6.72797 10.6381C6.41839 10.3762 6.20047 10.0224 6.10597 9.62806C6.0992 9.59296 6.10035 9.55678 6.10935 9.52218C6.11834 9.48758 6.13496 9.45542 6.15797 9.42806C6.18538 9.39497 6.21999 9.36857 6.25916 9.35089C6.29833 9.33322 6.34102 9.32472 6.38397 9.32607H8.85197C8.89486 9.32516 8.93741 9.33385 8.97651 9.3515C9.01561 9.36915 9.05028 9.3953 9.07797 9.42806C9.10077 9.45552 9.1171 9.48775 9.12575 9.52237C9.13441 9.55699 9.13517 9.59311 9.12797 9.62806C9.03347 10.0224 8.81556 10.3762 8.50597 10.6381C8.2634 10.8675 7.95054 11.0084 7.61797 11.0381ZM6.38397 9.55807C6.35197 9.55807 6.34397 9.57207 6.34197 9.57607C6.42652 9.918 6.61776 10.2241 6.88797 10.4501C7.08557 10.6447 7.34247 10.7679 7.61797 10.8001C7.89277 10.7683 8.14938 10.6466 8.34797 10.4541C8.61735 10.2277 8.80784 9.92169 8.89197 9.58007C8.88761 9.57367 8.88157 9.5686 8.87451 9.56543C8.86745 9.56225 8.85965 9.56109 8.85197 9.56207L6.38397 9.55807Z" fill="black"/>
<path d="M10.644 9.72402C11.2902 9.72402 11.814 9.41599 11.814 9.03602C11.814 8.65605 11.2902 8.34802 10.644 8.34802C9.99783 8.34802 9.474 8.65605 9.474 9.03602C9.474 9.41599 9.99783 9.72402 10.644 9.72402Z" fill="#FEBBD0"/>
<path d="M4.58998 9.72402C5.23616 9.72402 5.75998 9.41599 5.75998 9.03602C5.75998 8.65605 5.23616 8.34802 4.58998 8.34802C3.94381 8.34802 3.41998 8.65605 3.41998 9.03602C3.41998 9.41599 3.94381 9.72402 4.58998 9.72402Z" fill="#FEBBD0"/>
<path d="M5.13998 8.76003C5.35802 8.76042 5.57127 8.69613 5.75276 8.57528C5.93425 8.45443 6.0758 8.28246 6.15952 8.08113C6.24323 7.87981 6.26534 7.65817 6.22305 7.44427C6.18075 7.23037 6.07595 7.03382 5.92192 6.87951C5.76788 6.72519 5.57153 6.62004 5.3577 6.57735C5.14388 6.53467 4.9222 6.55638 4.72072 6.63972C4.51924 6.72307 4.34702 6.86432 4.22584 7.04558C4.10466 7.22685 4.03998 7.43999 4.03998 7.65803C4.03998 7.94995 4.15581 8.22995 4.36204 8.43655C4.56827 8.64316 4.84806 8.7595 5.13998 8.76003ZM10.094 8.76003C10.3123 8.76161 10.5261 8.69833 10.7084 8.57821C10.8907 8.45809 11.0331 8.28654 11.1178 8.08532C11.2024 7.8841 11.2254 7.66228 11.1838 7.44799C11.1422 7.23369 11.0378 7.03659 10.884 6.88167C10.7302 6.72675 10.5339 6.621 10.3199 6.57783C10.1059 6.53465 9.88396 6.556 9.68213 6.63917C9.4803 6.72234 9.30772 6.86357 9.18627 7.04497C9.06482 7.22636 8.99998 7.43973 8.99998 7.65803C8.99944 7.94908 9.11428 8.22847 9.31933 8.43502C9.52438 8.64157 9.80293 8.75844 10.094 8.76003Z" fill="black"/>
<path d="M4.8 7.72802C4.88197 7.72842 4.9622 7.70447 5.03055 7.65922C5.09889 7.61397 5.15227 7.54945 5.18391 7.47384C5.21555 7.39823 5.22404 7.31492 5.20829 7.23449C5.19254 7.15405 5.15327 7.08009 5.09545 7.02199C5.03763 6.96389 4.96387 6.92426 4.88351 6.90813C4.80314 6.89199 4.7198 6.90007 4.64403 6.93135C4.56827 6.96262 4.50349 7.01568 4.45791 7.08381C4.41233 7.15193 4.388 7.23205 4.388 7.31402C4.388 7.42347 4.43134 7.52847 4.50855 7.60606C4.58576 7.68364 4.69055 7.72749 4.8 7.72802ZM9.754 7.72802C9.83597 7.72842 9.9162 7.70447 9.98455 7.65922C10.0529 7.61397 10.1063 7.54945 10.1379 7.47384C10.1696 7.39823 10.178 7.31492 10.1623 7.23449C10.1465 7.15405 10.1073 7.08009 10.0495 7.02199C9.99163 6.96389 9.91787 6.92426 9.83751 6.90813C9.75714 6.89199 9.6738 6.90007 9.59804 6.93135C9.52227 6.96262 9.45749 7.01568 9.41191 7.08381C9.36633 7.15193 9.342 7.23205 9.342 7.31402C9.34199 7.42279 9.38478 7.52719 9.46113 7.60466C9.53748 7.68213 9.64124 7.72644 9.75 7.72802H9.754Z" fill="white"/>
</svg>
