<svg width="16" height="16" viewBox="0 0 16 16" fill="none" xmlns="http://www.w3.org/2000/svg">
<g clip-path="url(#clip0_1_1307)">
<path d="M9.54174 15.853C9.54174 15.853 7.80957 11.9189 8.24967 8.30787C8.68976 4.69683 11.5377 3.05282 13.1521 2.8765C14.7665 2.70018 15.6474 3.69886 15.6474 3.69886L16 3.17061C16 3.17061 13.681 0.822022 10.745 1.0865C7.80887 1.35098 5.7833 3.28839 4.52155 5.63697C3.2591 7.98556 2.5249 9.62957 2.02627 12.0959C1.52764 14.5623 1.73287 15.8537 1.73287 15.8537L9.54174 15.853ZM0.177025 11.9189L1.70325 12.0367L1.43877 13.5629L0 13.3866L0.177025 11.9189ZM2.58415 8.68943L2.99533 7.54476L1.64471 7.0165L1.20462 8.24933L2.58415 8.68943ZM4.49264 4.75537L5.28537 3.81594L4.25778 3.14098L3.43613 4.0508L4.49264 4.75537ZM6.57674 1.11542L7.28132 1.96669L8.25037 1.40882L7.5458 0.61608L6.57674 1.11542ZM10.0115 0.146362L10.1878 0.997636L11.3917 0.968014L11.2739 0.204901L10.0115 0.146362ZM14.0626 1.58443L14.885 2.02453L15.0613 1.76004L14.0929 1.05547L14.0626 1.58443ZM13.9159 3.31731V3.7574L14.7086 3.84556V3.49292L13.9159 3.31731ZM11.3917 3.69886L11.7733 4.40344L12.3311 3.96334L12.2141 3.49362L11.3917 3.69886ZM10.1878 4.60867L10.7746 5.48957L10.4226 6.10598L9.57137 5.16655L10.1878 4.60867ZM9.01349 7.04542L8.63193 7.80853L9.62991 8.65981L9.86476 7.69075L9.01349 7.04542ZM8.54377 10.7446L9.7766 11.2729L9.71806 10.3038L8.60231 9.71632L8.54377 10.7446ZM9.24905 14.4142L10.8049 14.5024L10.247 13.3577H8.95495L9.24905 14.4142Z" fill="#7963E6"/>
</g>
<defs>
<clipPath id="clip0_1_1307">
<rect width="16" height="16" fill="white"/>
</clipPath>
</defs>
</svg>
