<svg width="16" height="16" viewBox="0 0 16 16" fill="none" xmlns="http://www.w3.org/2000/svg">
<path fill-rule="evenodd" clip-rule="evenodd" d="M13.3334 12H2.66671V5.33335H13.3334M13.3334 4.00002H8.00004L6.66671 2.66669H2.66671C1.92671 2.66669 1.33337 3.26002 1.33337 4.00002V12C1.33337 12.3536 1.47385 12.6928 1.7239 12.9428C1.97395 13.1929 2.31309 13.3334 2.66671 13.3334H13.3334C13.687 13.3334 14.0261 13.1929 14.2762 12.9428C14.5262 12.6928 14.6667 12.3536 14.6667 12V5.33335C14.6667 4.59335 14.0667 4.00002 13.3334 4.00002Z" fill="#00897B"/>
<path fill-rule="evenodd" clip-rule="evenodd" d="M15.5226 11.2993H14.6639V12.158H12.0878V10.87H12.9465V10.0112H12.0878V7.86444C12.0878 7.63669 11.9973 7.41827 11.8362 7.25722C11.6752 7.09618 11.4568 7.00571 11.229 7.00571H7.79416V6.14697H6.93542V9.58184H7.79416V8.72311H10.3703V10.0112H9.51156V10.8699H10.3703V13.0167C10.3703 13.2445 10.4608 13.4629 10.6218 13.6239C10.7829 13.785 11.0013 13.8754 11.229 13.8754H14.6639V14.7342H15.5226" fill="#B2DFDB"/>
</svg>
