<svg width="16" height="16" viewBox="0 0 16 16" fill="none" xmlns="http://www.w3.org/2000/svg">
<path d="M6.66668 2.66669H2.66668C1.92668 2.66669 1.33334 3.26002 1.33334 4.00002V12C1.33334 12.7314 1.93534 13.3334 2.66668 13.3334H13.3333C14.0647 13.3334 14.6667 12.7314 14.6667 12V5.33335C14.6667 4.97973 14.5262 4.64059 14.2762 4.39054C14.0261 4.1405 13.687 4.00002 13.3333 4.00002H8.00001L6.66668 2.66669Z" fill="#D81B60"/>
<path fill-rule="evenodd" clip-rule="evenodd" d="M15 9.11135V8.29602H14.2V7.48135C14.2 7.03335 13.84 6.66669 13.4 6.66669H7.8C7.36 6.66669 7 7.03335 7 7.48135V13.1854C7 13.6334 7.36 14 7.8 14H13.4C13.84 14 14.2 13.6334 14.2 13.1854V12.3707H15V11.5554H14.2V10.7407H15V9.92669H14.2V9.11202L15 9.11135ZM13.4 13.1847H7.8V7.48135H13.4V13.1847ZM8.6 10.7407H10.6V12.3707H8.6V10.7407ZM11 8.29602H12.6V9.51869H11V8.29602ZM8.6 8.29602H10.6V10.3334H8.6V8.29602ZM11 9.92602H12.6V12.3707H11V9.92602Z" fill="#F8BBD0"/>
</svg>
