<svg width="16" height="16" viewBox="0 0 16 16" fill="none" xmlns="http://www.w3.org/2000/svg">
<path fill-rule="evenodd" clip-rule="evenodd" d="M13.3334 12H2.66671V5.33335H13.3334M13.3334 4.00002H8.00004L6.66671 2.66669H2.66671C1.92671 2.66669 1.33337 3.26002 1.33337 4.00002V12C1.33337 12.3536 1.47385 12.6928 1.7239 12.9428C1.97395 13.1929 2.31309 13.3334 2.66671 13.3334H13.3334C13.687 13.3334 14.0261 13.1929 14.2762 12.9428C14.5262 12.6928 14.6667 12.3536 14.6667 12V5.33335C14.6667 4.59335 14.0667 4.00002 13.3334 4.00002Z" fill="#F9A825"/>
<path fill-rule="evenodd" clip-rule="evenodd" d="M12.6781 11.8493C12.8894 11.8493 13.0922 11.7654 13.2416 11.6159C13.3911 11.4664 13.4751 11.2637 13.4751 11.0523C13.4751 10.61 13.1164 10.2553 12.6781 10.2553C12.4667 10.2553 12.264 10.3393 12.1145 10.4888C11.965 10.6382 11.8811 10.841 11.8811 11.0523C11.8811 11.2637 11.965 11.4664 12.1145 11.6159C12.264 11.7654 12.4667 11.8493 12.6781 11.8493ZM15.0691 8.2628C15.2804 8.2628 15.4832 8.34677 15.6326 8.49624C15.7821 8.6457 15.8661 8.84842 15.8661 9.0598V13.0449C15.8661 13.2562 15.7821 13.459 15.6326 13.6084C15.4832 13.7579 15.2804 13.8419 15.0691 13.8419H10.287C10.0756 13.8419 9.87289 13.7579 9.72343 13.6084C9.57396 13.459 9.48999 13.2562 9.48999 13.0449V9.0598C9.48999 8.61746 9.84864 8.2628 10.287 8.2628H10.6855V7.4658C10.6855 6.93735 10.8954 6.43054 11.2691 6.05687C11.6428 5.68319 12.1496 5.47327 12.678 5.47327C13.2065 5.47327 13.7133 5.68319 14.087 6.05687C14.4606 6.43054 14.6706 6.93735 14.6706 7.4658V8.2628H15.0691ZM12.6781 6.27027C12.361 6.27027 12.0569 6.39622 11.8327 6.62043C11.6085 6.84464 11.4825 7.14873 11.4825 7.4658V8.2628H13.8735V7.4658C13.8735 7.3088 13.8426 7.15334 13.7825 7.00829C13.7225 6.86324 13.6344 6.73145 13.5234 6.62043C13.4124 6.50941 13.2806 6.42135 13.1355 6.36127C12.9905 6.30119 12.8351 6.27027 12.6781 6.27027Z" fill="#FFF9C4"/>
</svg>
